<?xml version="1.0" encoding="utf-8"?>
<!-- Generator: Adobe Illustrator 21.0.2, SVG Export Plug-In . SVG Version: 6.00 Build 0)  -->
<svg version="1.0" id="Objects" xmlns="http://www.w3.org/2000/svg" xmlns:xlink="http://www.w3.org/1999/xlink" x="0px" y="0px"
	 viewBox="0 0 800 800" style="enable-background:new 0 0 800 800;" xml:space="preserve">
<style type="text/css">
	.st0{fill:#E6E7E8;}
	.st1{fill:#273244;}
	.st2{fill:#041728;}
	.st3{fill:#231F20;}
	.st4{fill:#22313D;}
	.st5{fill:#2A3B47;}
	.st6{fill:#472910;}
	.st7{fill:#EF7768;}
	.st8{fill:#F9B49B;}
	.st9{fill:#784E26;}
	.st10{fill:#D86964;}
	.st11{fill:#C5564D;}
	.st12{fill:#E16C60;}
	.st13{fill:#FFFFFF;}
	.st14{fill:#BCBCBC;}
	.st15{fill:#A25016;}
	.st16{fill:#99C978;}
	.st17{fill:#8DB76C;}
	.st18{fill:#F9FDFF;}
	.st19{fill:#1D2A3D;}
	.st20{fill:#2D3E50;}
	.st21{fill:#243547;}
	.st22{fill:#8DC2D4;}
	.st23{fill:#C4996C;}
	.st24{fill:#6C9E4C;}
	.st25{fill:#8C8C8C;}
	.st26{fill:#BEDBE2;}
	.st27{fill:none;stroke:#9FBBBF;stroke-width:3;stroke-miterlimit:10;}
	.st28{fill:none;stroke:#FFFFFF;stroke-miterlimit:10;}
</style>
<g id="business">
	<g>
		<g>
			<g>
				<rect x="214.4" y="505.2" class="st0" width="6.9" height="49.1"/>
				<polygon class="st0" points="193.4,564.5 190.3,564.5 214.4,554.4 218.7,559.4 				"/>
				<polygon class="st0" points="241.3,564.5 245.6,564.5 221.4,554.4 217.1,559.4 				"/>
				<rect x="214.4" y="554.4" class="st0" width="6.9" height="4.4"/>
				<polygon class="st0" points="219.4,567.6 216.4,567.6 215.1,552.9 220.7,552.9 				"/>
				<rect x="190.3" y="564.5" class="st0" width="3.1" height="3.1"/>
				<rect x="242.5" y="564.5" class="st0" width="3.1" height="3.1"/>
				<g>
					<polyline class="st1" points="192.2,508.7 243.7,508.7 243.7,500.6 192.2,500.6 					"/>
					<polyline class="st2" points="192.2,508.7 243.7,508.7 243.7,505.2 192.2,505.2 					"/>
					<polyline class="st2" points="192.2,500.6 243.7,500.6 243.7,426.5 192.2,426.5 					"/>
				</g>
				<rect x="208.8" y="508.6" class="st2" width="18.3" height="3.7"/>
				<ellipse class="st3" cx="191.5" cy="567.7" rx="1.9" ry="1.9"/>
				<ellipse class="st3" cx="217.7" cy="567.7" rx="1.9" ry="1.9"/>
				<ellipse class="st3" cx="243.9" cy="567.7" rx="1.9" ry="1.9"/>
			</g>
			<g>
				<path class="st4" d="M200.7,471.6c0,0-12.8,12.9,0,29c16.7,0,36.2,0,36.2,0s5.1-5.6,5-14.5c-0.1-7.5-6-14.5-6-14.5H200.7z"/>
				<path class="st5" d="M211.7,565.1c0,0,7-75.7,7-76.3c0-0.6-1-12-10.5-12c-9.4,0-12.1,6.4-12.1,13.5c0,7.1,3.5,74.8,3.5,74.8
					H211.7z"/>
				<path class="st5" d="M235.6,565.1c0,0,7-75.7,7-76.3c0-0.6-1-12-10.5-12c-9.4,0-12.1,6.4-12.1,13.5c0,7.1,3.5,74.8,3.5,74.8
					H235.6z"/>
				<path class="st6" d="M240,569.6c0,3.4-4.1,3.5-9.1,3.5c-5,0-9.1-0.1-9.1-3.5c0-3.4,4.1-8.1,9.1-8.1
					C235.9,561.5,240,566.2,240,569.6z"/>
				<path class="st6" d="M214,569.6c0,3.4-4.1,3.5-9.1,3.5s-9.1-0.1-9.1-3.5c0-3.4,4.1-8.1,9.1-8.1S214,566.2,214,569.6z"/>
			</g>
			<polygon class="st7" points="200.4,456.5 200.7,471.6 235.8,471.6 236.7,456.5 			"/>
		</g>
		<g>
			<polyline class="st8" points="215.8,415.8 215.8,392.9 225.2,377.9 225.2,420 			"/>
			<g>
				<path class="st8" d="M234.4,387.5c0,7.6-6.2,13.8-13.8,13.8l0,0c-7.6,0-13.8-6.2-13.8-13.8v-8.8c0-7.6,6.2-13.8,13.8-13.8l0,0
					c7.6,0,13.8,6.2,13.8,13.8V387.5z"/>
			</g>
			<path class="st7" d="M200.7,446.7l-1.2-41.7c0,0,4.9-1.8,16.3-2.1l5.1,7.1l4.2-7.1c5.5,0.2,14.5,3.1,14.5,3.1l-3.8,40.6H200.7z"
				/>
			<path class="st9" d="M208.9,387c0,0-4.7-2.2-5.9-7.3c-1.7-7.1,0.2-14,3.9-13.4c1.8,3.2,2.8,3.9,2.8,3.9S208.1,383.7,208.9,387z"
				/>
			<path class="st9" d="M210,370.5c0,0,4.8,3.7,14.2,3.7c9.3,0,15.9-8.6,13.9-15.8c-3,2.7-9.5,3.2-14.9,1.3
				c-5.4-1.9-11-1.9-14.5,0.9C205.2,363.5,206.5,368.3,210,370.5z"/>
			<path class="st9" d="M210.8,370.9c0,0-3.4,6.2-2.3,10.6c-2.7-3.4-3.5-8.5-3.5-8.5l2.1-6.4L210.8,370.9z"/>
			<path class="st9" d="M230,370.7c0,0,4,1.5,3.6,7.9c3.9-4.5,2-9.9,2-9.9l-1.9-2.3L230,370.7z"/>
			<path class="st10" d="M199.5,405c0,0-24.5,36.7-13,41.7c17.2,0,29.2,0,29.2,0l-0.2-5.6c0,0-19.5-0.3-21.4-3.3
				c-1.9-3.1,6-10.3,6-10.3"/>
			<path class="st10" d="M239.6,406c0,0,19,35.6,7.5,40.6c-17.2,0-29.2,0-29.2,0l1.9-5.5c0,0,18.8,0,20.7-3c1.9-3.1-3.1-9.2-3.1-9.2
				"/>
			<path class="st8" d="M215.4,446.5c0,0,6.7,0.8,7.5-0.6c0.3-0.4-0.3-0.7-0.7-0.7c0.9-0.3,1.2-0.3,1.2-0.8c0-0.5-1.3-0.7-1.3-0.7
				s1.6-0.1,1.6-0.8c0-0.8-1.4-0.7-1.4-0.7s1.5,0,1.4-0.7c0-0.7-0.6-0.7-1.2-0.7c-0.6,0-3.8,0.5-3.8,0.5s1.8-0.8,2.8-1
				c1-0.2,1.1-1.3-0.9-1c-2,0.3-5,1.9-5,1.9L215.4,446.5z"/>
		</g>
	</g>
	<g>
		<g>
			<g>
				<rect x="348.4" y="505.2" class="st0" width="6.9" height="49.1"/>
				<polygon class="st0" points="327.4,564.5 324.3,564.5 348.4,554.4 352.7,559.4 				"/>
				<polygon class="st0" points="375.3,564.5 379.6,564.5 355.4,554.4 351.1,559.4 				"/>
				<rect x="348.4" y="554.4" class="st0" width="6.9" height="4.4"/>
				<polygon class="st0" points="353.4,567.6 350.4,567.6 349.1,552.9 354.7,552.9 				"/>
				<rect x="324.3" y="564.5" class="st0" width="3.1" height="3.1"/>
				<rect x="376.5" y="564.5" class="st0" width="3.1" height="3.1"/>
				<g>
					<polyline class="st1" points="326.2,508.7 377.7,508.7 377.7,500.6 326.2,500.6 					"/>
					<polyline class="st2" points="326.2,508.7 377.7,508.7 377.7,505.2 326.2,505.2 					"/>
					<polyline class="st2" points="326.2,500.6 377.7,500.6 377.7,426.5 326.2,426.5 					"/>
				</g>
				<rect x="342.8" y="508.6" class="st2" width="18.3" height="3.7"/>
				<ellipse class="st3" cx="325.5" cy="567.7" rx="1.9" ry="1.9"/>
				<ellipse class="st3" cx="351.7" cy="567.7" rx="1.9" ry="1.9"/>
				<ellipse class="st3" cx="377.9" cy="567.7" rx="1.9" ry="1.9"/>
			</g>
			<g>
				<path class="st11" d="M334.7,471.6c0,0-12.8,12.9,0,29c16.7,0,36.2,0,36.2,0s5.1-5.6,5-14.5c-0.1-7.5-6-14.5-6-14.5H334.7z"/>
				<path class="st12" d="M345.7,565.1c0,0,7-75.7,7-76.3c0-0.6-1-12-10.5-12c-9.4,0-12.1,6.4-12.1,13.5c0,7.1,3.5,74.8,3.5,74.8
					H345.7z"/>
				<path class="st12" d="M369.6,565.1c0,0,7-75.7,7-76.3c0-0.6-1-12-10.5-12c-9.4,0-12.1,6.4-12.1,13.5c0,7.1,3.5,74.8,3.5,74.8
					H369.6z"/>
				<path class="st6" d="M374,569.6c0,3.4-4.1,3.5-9.1,3.5c-5,0-9.1-0.1-9.1-3.5c0-3.4,4.1-8.1,9.1-8.1
					C369.9,561.5,374,566.2,374,569.6z"/>
				<path class="st6" d="M348,569.6c0,3.4-4.1,3.5-9.1,3.5c-5,0-9.1-0.1-9.1-3.5c0-3.4,4.1-8.1,9.1-8.1
					C343.9,561.5,348,566.2,348,569.6z"/>
			</g>
			<polygon class="st13" points="334.4,456.5 334.7,471.6 369.8,471.6 370.7,456.5 			"/>
		</g>
		<g>
			<polyline class="st8" points="349.8,415.8 349.8,392.9 359.2,377.9 359.2,420 			"/>
			<g>
				<path class="st8" d="M368.4,387.5c0,7.6-6.2,13.8-13.8,13.8l0,0c-7.6,0-13.8-6.2-13.8-13.8v-8.8c0-7.6,6.2-13.8,13.8-13.8l0,0
					c7.6,0,13.8,6.2,13.8,13.8V387.5z"/>
			</g>
			<path class="st13" d="M334.7,446.7l-1.2-41.7c0,0,4.9-1.8,16.3-2.1l5.1,7.1l4.2-7.1c5.5,0.2,14.5,3.1,14.5,3.1l-3.8,40.6H334.7z"
				/>
			<path class="st9" d="M344.8,370.9c0,0-3.4,6.2-2.3,10.6c-2.7-3.4-3.5-8.5-3.5-8.5l2.1-6.4L344.8,370.9z"/>
			<path class="st9" d="M364,370.7c0,0,4,1.5,3.6,7.9c3.9-4.5,2-9.9,2-9.9l-1.9-2.3L364,370.7z"/>
			<path class="st14" d="M333.5,405c0,0-24.5,36.7-13,41.7c17.2,0,29.2,0,29.2,0l-0.2-5.6c0,0-19.5-0.3-21.4-3.3
				c-1.9-3.1,6-10.3,6-10.3"/>
			<path class="st14" d="M373.6,406c0,0,19,35.6,7.5,40.6c-17.2,0-29.2,0-29.2,0l1.9-5.5c0,0,18.8,0,20.7-3c1.9-3.1-3.1-9.2-3.1-9.2
				"/>
			<path class="st8" d="M349.4,446.5c0,0,6.7,0.8,7.5-0.6c0.3-0.4-0.3-0.7-0.7-0.7c0.9-0.3,1.2-0.3,1.2-0.8c0-0.5-1.3-0.7-1.3-0.7
				s1.6-0.1,1.6-0.8c0-0.8-1.4-0.7-1.4-0.7s1.5,0,1.4-0.7c0-0.7-0.6-0.7-1.2-0.7c-0.6,0-3.8,0.5-3.8,0.5s1.8-0.8,2.8-1
				c1-0.2,1.1-1.3-0.9-1c-2,0.3-5,1.9-5,1.9L349.4,446.5z"/>
			<g>
				<g>
					<path class="st8" d="M367.9,388.1c0,7.6-6.2,13.8-13.7,13.8l0,0c-7.6,0-13.8-6.2-13.8-13.8v-8.8c0-7.6,6.2-13.8,13.8-13.8l0,0
						c7.6,0,13.7,6.2,13.7,13.8V388.1z"/>
				</g>
				<path class="st15" d="M341.2,380.7c0,0,23.8,0,23.5-11.7c-0.2-11.7-13.4-11.1-20.1-6.3C338.1,367.4,333.7,379.8,341.2,380.7z"/>
				<path class="st15" d="M360.9,373c0,0,5.5,2.3,7.1,8.7c2.8-3.3,5.7-8,2.8-13.3c-2-3.7-6-6.3-8.1-4.6
					C362.7,368.5,360.9,373,360.9,373z"/>
			</g>
		</g>
	</g>
	<g>
		<g>
			<g>
				<rect x="485.9" y="505.2" class="st0" width="6.9" height="49.1"/>
				<polygon class="st0" points="464.8,564.5 461.7,564.5 485.9,554.4 490.2,559.4 				"/>
				<polygon class="st0" points="512.7,564.5 517,564.5 492.9,554.4 488.6,559.4 				"/>
				<rect x="485.9" y="554.4" class="st0" width="6.9" height="4.4"/>
				<polygon class="st0" points="490.9,567.6 487.9,567.6 486.6,552.9 492.2,552.9 				"/>
				<rect x="461.7" y="564.5" class="st0" width="3.1" height="3.1"/>
				<rect x="513.9" y="564.5" class="st0" width="3.1" height="3.1"/>
				<g>
					<polyline class="st1" points="463.6,508.7 515.1,508.7 515.1,500.6 463.6,500.6 					"/>
					<polyline class="st2" points="463.6,508.7 515.1,508.7 515.1,505.2 463.6,505.2 					"/>
					<polyline class="st2" points="463.6,500.6 515.1,500.6 515.1,426.5 463.6,426.5 					"/>
				</g>
				<rect x="480.2" y="508.6" class="st2" width="18.3" height="3.7"/>
				<ellipse class="st3" cx="463" cy="567.7" rx="1.9" ry="1.9"/>
				<ellipse class="st3" cx="489.2" cy="567.7" rx="1.9" ry="1.9"/>
				<ellipse class="st3" cx="515.4" cy="567.7" rx="1.9" ry="1.9"/>
			</g>
			<g>
				<path class="st4" d="M472.1,471.6c0,0-12.8,12.9,0,29c16.7,0,36.2,0,36.2,0s5.1-5.6,5-14.5c-0.1-7.5-6-14.5-6-14.5H472.1z"/>
				<path class="st5" d="M483.2,565.1c0,0,7-75.7,7-76.3c0-0.6-1-12-10.5-12c-9.4,0-12.1,6.4-12.1,13.5c0,7.1,3.5,74.8,3.5,74.8
					H483.2z"/>
				<path class="st5" d="M507.1,565.1c0,0,7-75.7,7-76.3c0-0.6-1-12-10.5-12c-9.4,0-12.1,6.4-12.1,13.5c0,7.1,3.5,74.8,3.5,74.8
					H507.1z"/>
				<path class="st6" d="M511.5,569.6c0,3.4-4.1,3.5-9.1,3.5c-5,0-9.1-0.1-9.1-3.5c0-3.4,4.1-8.1,9.1-8.1
					C507.4,561.5,511.5,566.2,511.5,569.6z"/>
				<path class="st6" d="M485.5,569.6c0,3.4-4.1,3.5-9.1,3.5c-5,0-9.1-0.1-9.1-3.5c0-3.4,4.1-8.1,9.1-8.1
					C481.4,561.5,485.5,566.2,485.5,569.6z"/>
			</g>
			<polygon class="st16" points="471.9,456.5 472.1,471.6 507.3,471.6 508.2,456.5 			"/>
		</g>
		<g>
			<polyline class="st8" points="487.2,415.8 487.2,392.9 496.7,377.9 496.7,420 			"/>
			<g>
				<path class="st8" d="M505.9,387.5c0,7.6-6.2,13.8-13.8,13.8l0,0c-7.6,0-13.8-6.2-13.8-13.8v-8.8c0-7.6,6.2-13.8,13.8-13.8l0,0
					c7.6,0,13.8,6.2,13.8,13.8V387.5z"/>
			</g>
			<path class="st16" d="M472.1,446.7L471,405c0,0,4.9-1.8,16.3-2.1l5.1,7.1l4.2-7.1c5.5,0.2,14.5,3.1,14.5,3.1l-3.8,40.6H472.1z"/>
			<path class="st9" d="M480.3,387c0,0-4.7-2.2-5.9-7.3c-1.7-7.1,0.2-14,3.9-13.4c1.8,3.2,2.8,3.9,2.8,3.9S479.6,383.7,480.3,387z"
				/>
			<path class="st9" d="M481.5,370.5c0,0,4.8,3.7,14.2,3.7c9.3,0,15.9-8.6,13.9-15.8c-3,2.7-9.5,3.2-14.9,1.3
				c-5.4-1.9-11-1.9-14.5,0.9C476.6,363.5,477.9,368.3,481.5,370.5z"/>
			<path class="st9" d="M482.2,370.9c0,0-3.4,6.2-2.3,10.6c-2.7-3.4-3.5-8.5-3.5-8.5l2.1-6.4L482.2,370.9z"/>
			<path class="st9" d="M501.4,370.7c0,0,4,1.5,3.6,7.9c3.9-4.5,2-9.9,2-9.9l-1.9-2.3L501.4,370.7z"/>
			<path class="st17" d="M471,405c0,0-24.5,36.7-13,41.7c17.2,0,29.2,0,29.2,0l-0.2-5.6c0,0-19.5-0.3-21.4-3.3
				c-1.9-3.1,6-10.3,6-10.3"/>
			<path class="st17" d="M511.1,406c0,0,19,35.6,7.5,40.6c-17.2,0-29.2,0-29.2,0l1.9-5.5c0,0,18.8,0,20.7-3c1.9-3.1-3.1-9.2-3.1-9.2
				"/>
			<path class="st8" d="M486.8,446.5c0,0,6.7,0.8,7.5-0.6c0.3-0.4-0.3-0.7-0.7-0.7c0.9-0.3,1.2-0.3,1.2-0.8c0-0.5-1.3-0.7-1.3-0.7
				s1.6-0.1,1.6-0.8c0-0.8-1.4-0.7-1.4-0.7s1.5,0,1.4-0.7c0-0.7-0.6-0.7-1.2-0.7c-0.6,0-3.8,0.5-3.8,0.5s1.8-0.8,2.8-1
				c1-0.2,1.1-1.3-0.9-1c-2,0.3-5,1.9-5,1.9L486.8,446.5z"/>
		</g>
	</g>
	<g>
		<g>
			<rect x="112.9" y="505.1" class="st18" width="7.7" height="54.6"/>
			<polygon class="st18" points="89.4,571 86,571 112.9,559.8 117.6,565.4 			"/>
			<polygon class="st18" points="142.7,571 147.5,571 120.6,559.8 115.9,565.4 			"/>
			<rect x="112.9" y="559.8" class="st18" width="7.7" height="4.8"/>
			<polygon class="st18" points="118.5,574.5 115.1,574.5 113.6,558.2 119.9,558.2 			"/>
			<rect x="86" y="571" class="st18" width="3.4" height="3.5"/>
			<rect x="144.1" y="571" class="st18" width="3.4" height="3.5"/>
			<g>
				<polygon class="st19" points="59,426.5 86.1,509 144.1,509 144.1,500 93.8,500 68.6,427.5 				"/>
				<polygon class="st2" points="88.8,505.1 62.8,426.9 59,426.5 86.1,509 144.1,509 144.1,505.1 				"/>
			</g>
			<rect x="106.6" y="508.9" class="st2" width="20.3" height="4.2"/>
			<circle class="st3" cx="87.7" cy="574.9" r="2.1"/>
			<circle class="st3" cx="116.7" cy="574.9" r="2.1"/>
			<circle class="st3" cx="145.8" cy="574.9" r="2.1"/>
		</g>
		<g>
			<path class="st20" d="M204.5,563.5l-26.6-80.2c-2-3-5.4-4.9-9-4.9c0,0-15.2-1.5-35.7-2c-8.3-0.2-15-3.7-15.7-4.2H91.1
				c0,0.2-1.5,27.7,32.4,27.7c13.9,0,32,0,39.7,0l27.7,66L204.5,563.5z"/>
			<path class="st3" d="M204.5,563.5c0,0,9.4,2.8,12.9,3c4.6,0.3,5.7,5.8,5.7,5.8h-31.3c0,0-1.5-3.2-1-6.5c5.9-1,12.9-2.3,12.9-2.3"
				/>
			<polyline class="st8" points="103.5,404.6 106.3,382.5 119.2,367.1 112.3,411 			"/>
			<g>
				<path class="st8" d="M134.9,376.3c0,0-2,28.2-14.1,28.2c-7.6,0-12.8-4.8-12.8-13.4l1.2-14.9"/>
				<path class="st21" d="M111.9,376.3c0,0,17,6.1,23.8,0c6.9-6.1-3.1-13-13.9-13c-10.8,0-13.9,4.9-13.9,4.9L111.9,376.3z"/>
				<path class="st21" d="M107.9,368.1c0,0-4.1,0.2-5.6,3.8c-1.4,3.6-0.5,18.8,2.4,22.5c0.4-3.8,3.9-11,6.3-13.1
					c2.5-2.2,4.1-1.8,5.5,2.3c-0.8-5.1-0.4-7.3-0.4-7.3L107.9,368.1z"/>
			</g>
			<path class="st21" d="M111.1,381.3c0,0-2.6,4.1,0.3,11.2c-4.3,0.8-6.6,1.9-6.6,1.9s-2.1-4,0-7.2
				C106.8,384,111.1,381.3,111.1,381.3z"/>
			<path class="st13" d="M91.1,472.1c0,0-3.8-37,0-55.3c3.8-18.3,25.6-17.4,28.8,0c3.1,17.4-4.9,29.4-4.5,36.6
				c0.4,7.1,2.1,18.7,2.1,18.7H91.1z"/>
			<path class="st13" d="M175.9,440.2c0,0-38.7-3.2-54-21.6c-12.4-14.8-22.5,0-10,10c13,10.4,34.5,17.9,63.8,17.1
				C175.8,444.6,175.9,440.2,175.9,440.2z"/>
			<path class="st8" d="M175.7,445.8c0,0,6.7,0.8,7.5-0.6c0.3-0.4-0.3-0.7-0.7-0.7c0.9-0.3,1.2-0.3,1.2-0.8s-1.3-0.7-1.3-0.7
				s1.6-0.1,1.6-0.8c0-0.8-1.4-0.7-1.4-0.7s1.5,0,1.4-0.7c0-0.7-0.6-0.7-1.2-0.7c-0.6,0-3.8,0.5-3.8,0.5s1.8-0.8,2.8-1
				c1-0.2,1.1-1.3-0.9-1c-2,0.3-5,1.9-5,1.9L175.7,445.8z"/>
		</g>
		<polygon class="st19" points="133.8,503.8 120.3,469 79,469 79,464 123.7,464 138.5,502 		"/>
	</g>
	<g>
		<g>
			<rect x="657" y="505.1" class="st18" width="7.7" height="54.6"/>
			<polygon class="st18" points="688.2,571 691.6,571 664.7,559.8 660,565.4 			"/>
			<polygon class="st18" points="634.9,571 630.1,571 657,559.8 661.7,565.4 			"/>
			<rect x="657" y="559.8" class="st18" width="7.7" height="4.8"/>
			<polygon class="st18" points="659.2,574.5 662.5,574.5 664,558.2 657.7,558.2 			"/>
			<rect x="688.2" y="571" class="st18" width="3.4" height="3.5"/>
			<rect x="630.1" y="571" class="st18" width="3.4" height="3.5"/>
			<g>
				<polygon class="st1" points="718.6,426.5 691.5,509 633.5,509 633.5,500 683.8,500 709,427.5 				"/>
				<polygon class="st2" points="688.8,505.1 714.8,426.9 718.6,426.5 691.5,509 633.5,509 633.5,505.1 				"/>
			</g>
			<rect x="650.7" y="508.9" class="st2" width="20.3" height="4.2"/>
			<circle class="st3" cx="689.9" cy="574.9" r="2.1"/>
			<circle class="st3" cx="660.9" cy="574.9" r="2.1"/>
			<circle class="st3" cx="631.8" cy="574.9" r="2.1"/>
		</g>
		<g>
			<path class="st20" d="M573.1,563.5l26.6-80.2c2-3,5.4-4.9,9-4.9c0,0,15.2-1.5,35.7-2c8.3-0.2,15-3.7,15.7-4.2h26.4
				c0,0.2,1.5,27.7-32.4,27.7c-13.9,0-32,0-39.7,0l-27.7,66L573.1,563.5z"/>
			<path class="st3" d="M573.1,563.5c0,0-9.4,2.8-12.9,3c-4.6,0.3-5.7,5.8-5.7,5.8h31.3c0,0,1.5-3.2,1-6.5c-5.9-1-12.9-2.3-12.9-2.3
				"/>
			<polyline class="st8" points="674.1,404.6 671.3,382.5 658.4,367.1 665.3,411 			"/>
			<g>
				<path class="st8" d="M642.7,376.3c0,0,2,28.2,14.1,28.2c7.6,0,12.8-4.8,12.8-13.4l-1.2-14.9"/>
				<path class="st3" d="M665.7,376.3c0,0-17,6.1-23.8,0c-6.9-6.1,3.1-13,13.9-13c10.8,0,13.9,4.9,13.9,4.9L665.7,376.3z"/>
				<path class="st3" d="M669.7,368.1c0,0-1.4-6.2-7.1-7.3c-5.8-1-17.7,4.1-27.5-3.3c-1.3,15.5,3.9,20.7,14.4,21.4"/>
				<path class="st3" d="M669.7,368.1c0,0,4.1,0.2,5.6,3.8c1.4,3.6,0.5,18.8-2.4,22.5c-0.4-3.8-3.9-11-6.3-13.1
					c-2.5-2.2-4.1-1.8-5.5,2.3c0.8-5.1,0.4-7.3,0.4-7.3L669.7,368.1z"/>
			</g>
			<path class="st3" d="M666.5,381.3c0,0,2.6,4.1-0.3,11.2c4.3,0.8,6.6,1.9,6.6,1.9s2.1-4,0-7.2C670.8,384,666.5,381.3,666.5,381.3z
				"/>
			<path class="st22" d="M686.5,472.1c0,0,3.8-37,0-55.3c-3.8-18.3-25.7-17.4-28.8,0c-3.1,17.4,4.9,29.4,4.5,36.6
				c-0.4,7.1-2.1,18.7-2.1,18.7H686.5z"/>
			<path class="st22" d="M601.7,440.2c0,0,38.7-3.2,54-21.6c12.4-14.8,22.5,0,10,10c-13,10.4-34.5,17.9-63.8,17.1
				C601.8,444.6,601.7,440.2,601.7,440.2z"/>
			<path class="st8" d="M601.9,445.8c0,0-6.7,0.8-7.5-0.6c-0.3-0.4,0.3-0.7,0.7-0.7c-0.9-0.3-1.2-0.3-1.2-0.8c0-0.5,1.3-0.7,1.3-0.7
				s-1.6-0.1-1.6-0.8c0-0.8,1.4-0.7,1.4-0.7s-1.5,0-1.4-0.7c0-0.7,0.6-0.7,1.2-0.7c0.6,0,3.8,0.5,3.8,0.5s-1.8-0.8-2.8-1
				c-1-0.2-1.1-1.3,0.9-1c2,0.3,5,1.9,5,1.9L601.9,445.8z"/>
		</g>
		<polygon class="st19" points="643.7,503.8 657.2,469 699,469 699,464 653.8,464 639,502 		"/>
	</g>
	<g>
		<rect x="141.1" y="446.7" class="st18" width="10.7" height="131.9"/>
		<rect x="635.2" y="446.7" class="st18" width="10.7" height="131.9"/>
		<rect x="141.1" y="446.7" class="st23" width="504.8" height="9.8"/>
	</g>
	<g>
		<g>
			<g>
				<polyline class="st8" points="277,423.3 277,395.9 288.2,377.9 288.2,428.4 				"/>
				<g>
					<path class="st8" d="M299.4,389.5c0,9.1-7.4,16.5-16.5,16.5l0,0c-9.1,0-16.5-7.4-16.5-16.5v-10.6c0-9.1,7.4-16.5,16.5-16.5l0,0
						c9.1,0,16.5,7.4,16.5,16.5V389.5z"/>
				</g>
				<path class="st13" d="M259,460.4l0.6-50.5c0,0,3.9-1.6,17.4-1.9l6.1,8.5l5.1-8.5c6.6,0.3,15.2,3.1,15.2,3.1l-2.4,49.3H259z"/>
			</g>
			<ellipse class="st3" cx="282.7" cy="381.3" rx="20.8" ry="21.9"/>
			<polygon class="st13" points="288.2,407.9 288.2,406.7 277,406.7 277,407.9 282.9,417.9 			"/>
			<path class="st13" d="M259.5,409.9c0,0-24.5,32-13,36.5c17.2,0,29.2,0,29.2,0l-1.9-4.7c0,0-17.8-0.3-19.7-3.1
				c-1.9-2.8,15.1-19.8,15.1-19.8"/>
			<path class="st13" d="M303.4,411c0,0,24,30.8,12.5,35.4c-17.2,0-29.2,0-29.2,0l1.9-4.7c0,0,17.8-0.3,19.7-3.1
				c1.9-2.8-15.1-19.8-15.1-19.8"/>
		</g>
		<g>
			<g>
				<path class="st3" d="M301.6,572.4c0,0,7.9,2.8,10.9,3.1c3.9,0.3,4.8,5.9,4.8,5.9h-26.4c0,0-1.3-3.3-0.8-6.6
					c5-1,10.9-2.3,10.9-2.3"/>
				<path class="st3" d="M262.3,572.4c0,0-7.9,2.8-10.9,3.1c-3.9,0.3-4.8,5.9-4.8,5.9H273c0,0,1.3-3.3,0.8-6.6
					c-5-1-10.9-2.3-10.9-2.3"/>
				<path class="st24" d="M274,574.9c0,0,7.3-76.8,7.3-77.5s-1.1-12.2-10.9-12.2c-9.8,0-12.6,6.5-12.6,13.7c0,7.2,3.6,76,3.6,76H274
					z"/>
				<path class="st24" d="M302.4,574.9c0,0,7.2-76.8,7.2-77.5s-1.1-12.2-10.8-12.2c-9.8,0-12.5,6.5-12.5,13.7c0,7.2,3.6,76,3.6,76
					H302.4z"/>
			</g>
			<g>
				<g>
					<rect x="277.8" y="519.7" class="st0" width="8.3" height="59.5"/>
					<polygon class="st0" points="252.8,591.4 249.1,591.4 277.8,579.1 282.9,585.3 					"/>
					<polygon class="st0" points="309.7,591.4 314.8,591.4 286.1,579.1 281,585.3 					"/>
					<rect x="277.8" y="579.1" class="st0" width="8.3" height="5.3"/>
					<polygon class="st0" points="283.8,595.2 280.2,595.2 278.6,577.4 285.3,577.4 					"/>
					<rect x="249.1" y="591.4" class="st0" width="3.6" height="3.8"/>
					<rect x="311.2" y="591.4" class="st0" width="3.7" height="3.8"/>
					<g>
						<polyline class="st2" points="251.3,523.9 312.6,523.9 312.6,519.7 251.3,519.7 						"/>
						<polyline class="st2" points="251.3,519.7 312.6,519.7 312.6,428.7 251.3,428.7 						"/>
					</g>
					<rect x="271.1" y="523.8" class="st2" width="21.7" height="4.5"/>
					<ellipse class="st3" cx="250.5" cy="595.3" rx="2.3" ry="2.4"/>
					<ellipse class="st3" cx="281.7" cy="595.3" rx="2.3" ry="2.4"/>
					<ellipse class="st3" cx="312.9" cy="595.3" rx="2.3" ry="2.4"/>
				</g>
			</g>
		</g>
		<path class="st3" d="M264.6,385.5c0,0,1.1-6.6,9.5-7.4c8.4-0.8,14.7-4.3,16.6-8.3c4.9,3.3,9.9,7.3,10.3,15.6
			c3.7-5.7,5.3-20.3-7-22.9c-11-11-22.9-6.4-28.7,0.9C256.7,374.4,264.6,385.5,264.6,385.5z"/>
	</g>
	<g>
		<g>
			<g>
				<polyline class="st8" points="548.8,423.3 548.8,395.9 560,377.9 560,428.4 				"/>
				<g>
					<path class="st8" d="M571.2,389.5c0,9.1-7.4,16.5-16.5,16.5l0,0c-9.1,0-16.5-7.4-16.5-16.5v-10.6c0-9.1,7.4-16.5,16.5-16.5l0,0
						c9.1,0,16.5,7.4,16.5,16.5V389.5z"/>
				</g>
				<path class="st13" d="M530.8,460.4l0.6-50.5c0,0,3.9-1.6,17.4-1.9l6.1,8.5l5.1-8.5c6.6,0.3,15.2,3.1,15.2,3.1l-2.4,49.3H530.8z"
					/>
			</g>
			<ellipse class="st25" cx="554.5" cy="381.3" rx="20.8" ry="21.9"/>
			<polygon class="st13" points="560,407.9 560,406.7 548.8,406.7 548.8,407.9 554.7,417.9 			"/>
			<path class="st13" d="M531.3,409.9c0,0-24.5,32-13,36.5c17.2,0,29.2,0,29.2,0l-1.9-4.7c0,0-17.8-0.3-19.7-3.1
				c-1.9-2.8,15.1-19.8,15.1-19.8"/>
			<path class="st13" d="M575.2,411c0,0,24,30.8,12.5,35.4c-17.2,0-29.2,0-29.2,0l1.9-4.7c0,0,17.8-0.3,19.7-3.1
				c1.9-2.8-15.1-19.8-15.1-19.8"/>
		</g>
		<g>
			<g>
				<path class="st3" d="M573.4,572.4c0,0,7.9,2.8,10.9,3.1c3.9,0.3,4.8,5.9,4.8,5.9h-26.4c0,0-1.3-3.3-0.8-6.6
					c5-1,10.9-2.3,10.9-2.3"/>
				<path class="st3" d="M534.1,572.4c0,0-7.9,2.8-10.9,3.1c-3.9,0.3-4.8,5.9-4.8,5.9h26.4c0,0,1.3-3.3,0.8-6.6
					c-5-1-10.9-2.3-10.9-2.3"/>
				<path class="st20" d="M545.8,574.9c0,0,7.3-76.8,7.3-77.5s-1.1-12.2-10.9-12.2c-9.8,0-12.6,6.5-12.6,13.7c0,7.2,3.6,76,3.6,76
					H545.8z"/>
				<path class="st20" d="M574.2,574.9c0,0,7.2-76.8,7.2-77.5s-1.1-12.2-10.8-12.2c-9.8,0-12.5,6.5-12.5,13.7c0,7.2,3.6,76,3.6,76
					H574.2z"/>
			</g>
			<g>
				<g>
					<rect x="549.6" y="519.7" class="st0" width="8.3" height="59.5"/>
					<polygon class="st0" points="524.6,591.4 520.9,591.4 549.6,579.1 554.7,585.3 					"/>
					<polygon class="st0" points="581.5,591.4 586.6,591.4 557.9,579.1 552.8,585.3 					"/>
					<rect x="549.6" y="579.1" class="st0" width="8.3" height="5.3"/>
					<polygon class="st0" points="555.6,595.2 552,595.2 550.4,577.4 557.1,577.4 					"/>
					<rect x="520.9" y="591.4" class="st0" width="3.6" height="3.8"/>
					<rect x="583" y="591.4" class="st0" width="3.7" height="3.8"/>
					<g>
						<polyline class="st2" points="523.1,523.9 584.4,523.9 584.4,519.7 523.1,519.7 						"/>
						<polyline class="st2" points="523.1,519.7 584.4,519.7 584.4,428.7 523.1,428.7 						"/>
					</g>
					<rect x="542.9" y="523.8" class="st2" width="21.7" height="4.5"/>
					<ellipse class="st3" cx="522.3" cy="595.3" rx="2.3" ry="2.4"/>
					<ellipse class="st3" cx="553.5" cy="595.3" rx="2.3" ry="2.4"/>
					<ellipse class="st3" cx="584.7" cy="595.3" rx="2.3" ry="2.4"/>
				</g>
			</g>
		</g>
		<path class="st25" d="M536.4,385.5c0,0,1.1-6.6,9.5-7.4c8.4-0.8,14.7-4.3,16.6-8.3c4.9,3.3,9.9,7.3,10.3,15.6
			c3.7-5.7,5.3-20.3-7-22.9c-11-11-22.9-6.4-28.7,0.9C528.5,374.4,536.4,385.5,536.4,385.5z"/>
	</g>
	<g>
		<g>
			<g>
				<polyline class="st8" points="417.7,423.3 417.7,395.9 428.9,377.9 428.9,428.4 				"/>
				<g>
					<path class="st8" d="M440,389.5c0,9.1-7.4,16.5-16.5,16.5l0,0c-9.1,0-16.5-7.4-16.5-16.5v-10.6c0-9.1,7.4-16.5,16.5-16.5l0,0
						c9.1,0,16.5,7.4,16.5,16.5V389.5z"/>
				</g>
				<path class="st21" d="M408,380.6c0,0,28.5,0,28.2-14c-0.3-14-16.1-13.3-24-7.6C404.3,364.8,399,379.6,408,380.6z"/>
				<path class="st21" d="M431.5,374.3c0,0,6.2,3.4,8,12.9c3.1-4.9,6.4-11.9,3.2-19.8c-2.2-5.5-6.7-9.5-9.1-6.9
					C433.6,367.6,431.5,374.3,431.5,374.3z"/>
				<path class="st13" d="M399.6,460.4l0.6-50.5c0,0,3.9-1.6,17.4-1.9l6.1,8.5l5.1-8.5c6.6,0.3,15.2,3.1,15.2,3.1l-2.4,49.3H399.6z"
					/>
			</g>
			<ellipse class="st21" cx="423.4" cy="381.3" rx="20.8" ry="21.9"/>
			<polygon class="st13" points="428.9,407.9 428.9,406.7 417.7,406.7 417.7,407.9 423.6,417.9 			"/>
			<path class="st13" d="M400.2,409.9c0,0-24.5,32-13,36.5c17.2,0,29.2,0,29.2,0l-1.9-4.7c0,0-17.8-0.3-19.7-3.1
				c-1.9-2.8,15.1-19.8,15.1-19.8"/>
			<path class="st13" d="M444.1,411c0,0,24,30.8,12.5,35.4c-17.2,0-29.2,0-29.2,0l1.9-4.7c0,0,17.8-0.3,19.7-3.1
				c1.9-2.8-15.1-19.8-15.1-19.8"/>
		</g>
		<g>
			<g>
				<path class="st3" d="M442.3,572.4c0,0,7.9,2.8,10.9,3.1c3.9,0.3,4.8,5.9,4.8,5.9h-26.4c0,0-1.3-3.3-0.8-6.6
					c5-1,10.9-2.3,10.9-2.3"/>
				<path class="st3" d="M403,572.4c0,0-7.9,2.8-10.9,3.1c-3.9,0.3-4.8,5.9-4.8,5.9h26.4c0,0,1.3-3.3,0.8-6.6
					c-5-1-10.9-2.3-10.9-2.3"/>
				<path class="st20" d="M414.6,574.9c0,0,7.3-76.8,7.3-77.5s-1.1-12.2-10.9-12.2c-9.8,0-12.6,6.5-12.6,13.7c0,7.2,3.6,76,3.6,76
					H414.6z"/>
				<path class="st20" d="M443.1,574.9c0,0,7.2-76.8,7.2-77.5s-1.1-12.2-10.8-12.2c-9.8,0-12.5,6.5-12.5,13.7c0,7.2,3.6,76,3.6,76
					H443.1z"/>
			</g>
			<g>
				<g>
					<rect x="418.5" y="519.7" class="st0" width="8.3" height="59.5"/>
					<polygon class="st0" points="393.4,591.4 389.8,591.4 418.5,579.1 423.6,585.3 					"/>
					<polygon class="st0" points="450.4,591.4 455.5,591.4 426.8,579.1 421.7,585.3 					"/>
					<rect x="418.5" y="579.1" class="st0" width="8.3" height="5.3"/>
					<polygon class="st0" points="424.5,595.2 420.8,595.2 419.3,577.4 426,577.4 					"/>
					<rect x="389.8" y="591.4" class="st0" width="3.7" height="3.8"/>
					<rect x="451.8" y="591.4" class="st0" width="3.7" height="3.8"/>
					<g>
						<polyline class="st2" points="392,523.9 453.2,523.9 453.2,519.7 392,519.7 						"/>
						<polyline class="st2" points="392,519.7 453.2,519.7 453.2,428.7 392,428.7 						"/>
					</g>
					<rect x="411.8" y="523.8" class="st2" width="21.7" height="4.5"/>
					<ellipse class="st3" cx="391.2" cy="595.3" rx="2.3" ry="2.4"/>
					<ellipse class="st3" cx="422.4" cy="595.3" rx="2.3" ry="2.4"/>
					<ellipse class="st3" cx="453.6" cy="595.3" rx="2.3" ry="2.4"/>
				</g>
			</g>
		</g>
	</g>
</g>
<path class="st26" d="M241.4,86.3c-14.5,0-26.2,11.7-26.2,26.2c0,14.5,11.7,26.2,26.2,26.2s26.2-11.7,26.2-26.2
	C267.7,98,255.9,86.3,241.4,86.3z M237.2,111.1V98.7h8.4v12.4h5.8l-9.9,10l-10-10H237.2z M252.6,124h-1.8v2.3H232V124h-1.8v-1.7h1.8
	v1.7h18.8v-1.7h1.8V124z"/>
<g>
	<path class="st26" d="M266.5,291.2c-5,3-6.6,9.6-3.5,14.6c3.1,5,9.6,6.6,14.6,3.6c5-3.1,6.6-9.6,3.5-14.6
		C278.1,289.7,271.5,288.1,266.5,291.2z M272,306.3c-3.3,0-6.1-2.7-6.1-6.1c0-3.3,2.7-6,6.1-6c3.3,0,6.1,2.7,6.1,6
		C278.1,303.6,275.4,306.3,272,306.3z"/>
	<path class="st26" d="M272,272.7c-15.2,0-27.6,12.3-27.6,27.6c0,15.2,12.3,27.6,27.6,27.6c15.2,0,27.6-12.3,27.6-27.6
		C299.6,285,287.3,272.7,272,272.7z M289.8,298.1l-3.2,1.5l-0.3,3.6l2.9,2l0,0c-0.4,1.3-0.9,2.6-1.6,3.8l0-0.1l-3.5-0.7l-2.3,2.7
		l1.2,3.4l0.1,0c-0.5,0.4-1.1,0.8-1.7,1.2c-0.6,0.4-1.2,0.7-1.9,1l0-0.1l-2.5-2.6l-3.5,0.8l-1,3.4l0,0.1c-1.4,0-2.8-0.1-4.1-0.4l0,0
		l-0.4-3.6l-3.3-1.4l-2.8,2.2l0,0.1c-1.1-0.8-2.2-1.7-3.1-2.7h0.1l1.7-3.1l-1.8-3.1l-3.6,0.1l0,0.1c-0.5-1.3-0.8-2.7-0.9-4l0.1,0
		l3.2-1.5l0.3-3.6l-2.9-2l-0.1,0c0.4-1.3,0.9-2.6,1.6-3.8l0,0.1l3.5,0.6l2.3-2.7l-1.2-3.4l-0.1,0c0.5-0.4,1.1-0.8,1.6-1.1
		c0.6-0.4,1.3-0.7,1.9-1l0,0.1l2.5,2.6l3.5-0.8l1-3.4l0,0c1.4,0,2.8,0.1,4.1,0.4l0,0l0.4,3.5l3.3,1.4l2.9-2.1v-0.1
		c1.1,0.8,2.2,1.7,3.1,2.7h-0.1l-1.7,3.1l1.8,3l3.6-0.1l0-0.1C289.4,295.5,289.7,296.8,289.8,298.1L289.8,298.1z"/>
</g>
<g>
	<path class="st26" d="M547,287c1.1,0.9,15.5,11.6,15.5,11.6s14.1-10.6,15.2-11.6c-1.2,0.7-15.2,9-15.2,9S548.2,287.7,547,287z"/>
	<path class="st26" d="M562.5,270.7c-14.5,0-26.2,11.7-26.2,26.2c0,14.5,11.7,26.2,26.2,26.2c14.5,0,26.2-11.7,26.2-26.2
		C588.7,282.5,577,270.7,562.5,270.7z M578.7,306.1c0,0.8-0.6,1.5-1.4,1.5h-29.7c-0.8,0-1.4-0.7-1.4-1.5v-18.2
		c0-0.8,0.6-1.5,1.4-1.5h29.7c0.8,0,1.4,0.7,1.4,1.5V306.1z"/>
</g>
<g>
	<path class="st13" d="M631.6,88.9c2.5-2.5,6.3-2.8,9.2-1.1c-1,1-2.1,2.1-2.1,2.1c-0.8,0.9,0.1,1.5,0.5,1.5l5.3,0c0.3,0,0.5,0,0.5,0
		h0.5h1c0.3,0,0.5-0.2,0.5-0.5v-7.2c0-0.7-0.7-1.3-1.4-0.6c0,0-1.2,1.2-2.1,2.1c-4.4-3.2-10.5-2.8-14.5,1.1
		c-2.3,2.3-3.4,5.4-3.3,8.4h3.7C629.3,92.6,630,90.5,631.6,88.9"/>
	<path class="st13" d="M644,93.4c0.1,2.1-0.6,4.2-2.2,5.7c-2.5,2.5-6.3,2.8-9.2,1.1c1-1,2.1-2.1,2.1-2.1c0.8-0.9-0.1-1.5-0.5-1.5
		l-5.2,0c-0.3,0-0.5,0-0.5,0H628h-1c-0.3,0-0.5,0.2-0.5,0.5v7.2c0,0.7,0.7,1.3,1.4,0.6c0,0,1.2-1.2,2.1-2.1
		c4.4,3.2,10.5,2.8,14.5-1.1c2.3-2.3,3.4-5.4,3.3-8.4L644,93.4L644,93.4z"/>
</g>
<g>
	<path class="st13" d="M613.9,249.6c1.6-0.6,3.3,0.3,3.9,1.9c0.6,1.6-0.3,3.3-1.9,3.9c-1.6,0.6-3.3-0.3-3.9-1.9
		C611.4,251.9,612.3,250.1,613.9,249.6"/>
	<path class="st13" d="M619.4,243.1c-0.1,0-0.1-0.1-0.2-0.1l-0.2-0.1c0,0-0.1,0-0.1,0c-4.9-2.1-10.6,0-12.9,4.8l-0.3,0.6l-0.4,0.8
		c-0.5,1-0.1,2.1,0.9,2.6c1,0.5,2.1,0.1,2.6-0.9l0.7-1.3c1.5-3.1,5.2-4.3,8.2-2.9l1,0.4c0.9,0.5,2.1,0.1,2.5-0.9
		c0.2-0.5,0.3-1,0.1-1.5c-0.2-0.5-0.5-0.9-1-1.1L619.4,243.1z"/>
	<path class="st13" d="M623.1,237.8l-0.8-0.4c0,0,0,0,0,0l-0.6-0.3c-0.1-0.1-0.2-0.1-0.3-0.1c-8-3.2-17.2,0.1-21.1,7.9
		c0,0,0,0.1-0.1,0.1l-0.7,1.5c-0.4,0.9-0.1,1.9,0.8,2.3c0.9,0.4,1.9,0.1,2.3-0.8l0.7-1.5c0,0,0,0,0,0c3.2-6.3,10.8-8.9,17.2-6
		l1.2,0.6c0.9,0.4,1.9,0.1,2.3-0.8C624.3,239.3,624,238.2,623.1,237.8"/>
</g>
<g>
	<path class="st13" d="M418.1,71.6l-1.2,1.3l2.7,2.6l1.2-1.3c1.2,0.8,2.5,1.3,3.9,1.6l0,1.8l3.7-0.1l0-1.8c1.4-0.3,2.7-0.9,3.9-1.7
		l1.3,1.2l2.6-2.7l-1.3-1.2c0.8-1.2,1.3-2.5,1.6-3.9l1.8,0l-0.1-3.7l-1.8,0c-0.3-1.4-0.9-2.7-1.7-3.9l1.2-1.3l-2.7-2.6l-1.2,1.3
		c-1.2-0.8-2.5-1.3-3.9-1.6l0-1.8l-3.7,0.1l0,1.8c-1.4,0.3-2.7,0.9-3.9,1.7l-1.3-1.2l-2.6,2.7l1.3,1.2c-0.8,1.2-1.3,2.5-1.6,3.9
		l-1.8,0l0.1,3.7l1.8,0C416.8,69.2,417.3,70.5,418.1,71.6 M426.3,58.2c4.1-0.1,7.5,3.2,7.6,7.4c0.1,4.1-3.2,7.5-7.4,7.6
		c-4.1,0.1-7.5-3.2-7.6-7.4C418.9,61.7,422.2,58.3,426.3,58.2"/>
	<path class="st13" d="M447.3,49.7l1.1-0.5l-1.2-2.7L446,47c-0.5-0.7-1.1-1.2-1.8-1.7l0.4-1.1l-2.8-1.1l-0.4,1.1
		c-0.8-0.1-1.6-0.1-2.4,0.1l-0.5-1.1l-2.7,1.2l0.5,1.1c-0.7,0.5-1.2,1.1-1.7,1.8l-1.1-0.4l-1.1,2.8l1.1,0.4
		c-0.1,0.8-0.1,1.6,0.1,2.4l-1.1,0.5l1.2,2.7l1.1-0.5c0.5,0.7,1.1,1.2,1.8,1.7l-0.4,1.1l2.8,1.1l0.4-1.1c0.8,0.1,1.6,0.1,2.4-0.1
		l0.5,1.1l2.7-1.2l-0.5-1.1c0.7-0.5,1.2-1.1,1.7-1.8l1.1,0.4l1.1-2.8l-1.1-0.4C447.4,51.3,447.4,50.5,447.3,49.7 M442.3,55.3
		c-0.6,0.3-1.2,0.4-1.8,0.4c-1.9,0-3.6-1.1-4.3-2.8c-1-2.3,0-5.1,2.4-6.1c0.6-0.3,1.2-0.4,1.8-0.4c1.9,0,3.6,1.1,4.3,2.8
		C445.7,51.6,444.7,54.3,442.3,55.3"/>
</g>
<path class="st13" d="M91.2,60H71c-1.7,0-3.1,1.4-3.1,3.1V74c0,1.7,1.4,3.1,3.1,3.1h1.6v5.4c0,0.2,0.1,0.4,0.2,0.6
	c0.3,0.3,0.8,0.3,1.1,0l6.4-6h10.9c1.7,0,3.1-1.4,3.1-3.1V63.1C94.3,61.4,92.9,60,91.2,60 M73.3,64.6h12.4c0.4,0,0.8,0.3,0.8,0.8
	c0,0.4-0.3,0.8-0.8,0.8H73.3c-0.4,0-0.8-0.3-0.8-0.8C72.5,65,72.9,64.6,73.3,64.6 M79.5,72.4h-6.2c-0.4,0-0.8-0.3-0.8-0.8
	c0-0.4,0.3-0.8,0.8-0.8h6.2c0.4,0,0.8,0.3,0.8,0.8C80.3,72.1,79.9,72.4,79.5,72.4 M88.8,69.3H73.3c-0.4,0-0.8-0.3-0.8-0.8
	c0-0.4,0.3-0.8,0.8-0.8h15.5c0.4,0,0.8,0.3,0.8,0.8C89.6,68.9,89.3,69.3,88.8,69.3"/>
<path class="st26" d="M658.4,163.5c-15.3,0-27.7,12.4-27.7,27.7c0,15.3,12.4,27.7,27.7,27.7c15.3,0,27.7-12.4,27.7-27.7
	C686.1,175.9,673.7,163.5,658.4,163.5z M638.4,186.2h9.5l0.3,3.9h-8.8L638.4,186.2z M639.7,191.2h8.6l0.5,6.2h-7.5L639.7,191.2z
	 M646.1,209.4c-1.7,0-3.1-1.4-3.1-3.1c0-1.7,1.4-3.1,3.1-3.1c1.7,0,3.1,1.4,3.1,3.1C649.2,208,647.8,209.4,646.1,209.4z
	 M642.6,202.2l-0.9-3.7h7.3l0.3,3.7H642.6z M658.1,202.2h-7.7l-0.3-3.7h8.3L658.1,202.2z M658.5,197.4H650l-0.5-6.2h9.5L658.5,197.4
	z M649.4,190.1l-0.3-3.9h10.3l-0.3,3.9H649.4z M662.4,209.4c-1.7,0-3.1-1.4-3.1-3.1c0-1.7,1.4-3.1,3.1-3.1c1.7,0,3.1,1.4,3.1,3.1
	C665.5,208,664.1,209.4,662.4,209.4z M665.9,202.2h-6.7l0.3-3.7h7.3L665.9,202.2z M667.2,197.4h-7.5l0.5-6.2h8.6L667.2,197.4z
	 M676.5,183.9h-3c-1.3,1.1-2.5,2.4-3.8,3.7l-0.7,2.5h-8.8l0.3-3.9h5.8c0.1-0.2,0.2-0.4,0.4-0.6c1.6-1.6,3.2-3.2,4.7-4.7
	c0.1-0.1,0.3-0.3,0.4-0.3c0.3-0.2,0.6-0.3,1-0.3h3.7C678.8,180.2,678.8,183.9,676.5,183.9z"/>
<g>
	<path class="st26" d="M115.1,217.3c0,0.4,0.3,0.4,0.4,0.4c1,0,2.4-1,3.5-5.6c-0.8,0.1-1.5,0.3-1.9,0.8
		C116,214,115.1,216,115.1,217.3z"/>
	<path class="st26" d="M117.6,188.2c-14.5,0-26.2,11.7-26.2,26.2c0,14.5,11.7,26.2,26.2,26.2c14.5,0,26.2-11.7,26.2-26.2
		C143.9,199.9,132.1,188.2,117.6,188.2z M131,218.4c-1.6,2.4-3.9,3.7-6.8,3.7c-2.1,0-3.1-0.5-4.3-1.5c-1.3,0.9-2.6,1.5-4.7,1.5
		c-3.2,0-5.5-2-5.5-4.6c0-2.4,1.2-5.4,3-7.2c1.6-1.7,3.9-2.8,9.8-2.8c0.5,0,1.1,0,1.6,0l1.1,0l-0.2,1l-1.3,6.3c0,0.1,0,0.2-0.1,0.4
		c-0.1,0.5-0.3,1.4-0.3,1.7c0,0.6,0.2,0.8,0.8,0.8c1,0,1.9-0.7,2.5-2c0.6-1.3,0.8-2.8,0.8-3.7c0-2.4-0.8-4.5-2.4-6
		c-1.6-1.5-3.8-2.3-6.5-2.3c-5.4,0-10.9,4.5-10.9,13.2c0,2.6,0.8,4.7,2.4,6.1c1.6,1.5,3.9,2.2,6.7,2.2c4.2,0,7.6-1.5,10.7-3.1
		l0.8-0.4l0.4,0.8l1.2,2.6l0.4,0.8l-0.7,0.4c-4,2.2-8.5,3.3-13,3.3c-3.7,0-7.1-1.1-9.6-3c-3-2.3-4.6-5.7-4.6-9.8
		c0-4.2,1.5-8.5,4.1-11.7c2.1-2.6,6-5.8,12.5-5.8c3.2,0,6.6,1.1,9.1,2.9c2.2,1.6,4.9,4.6,4.9,9.6C132.9,214.1,132.2,216.6,131,218.4
		z"/>
</g>
<g>
	<polygon class="st13" points="464.5,241.6 467.9,241.6 467.9,243 477.3,246.9 477.3,237.7 477.3,228.5 467.9,232.4 467.9,233.9 
		464.5,233.9 	"/>
	<path class="st13" d="M479.3,232.5c0.8,1.4,1.2,3.3,1.2,5.2c0,1.9-0.4,3.7-1.2,5.2l1.5,0.8c0.9-1.7,1.4-3.8,1.4-6
		c0-2.2-0.5-4.3-1.4-6L479.3,232.5z"/>
	<path class="st13" d="M483.8,237.7c0,2.6-0.6,5.2-1.7,7.2l1.5,0.8c1.2-2.3,1.9-5.1,1.9-8c0-2.9-0.7-5.8-1.9-8l-1.5,0.8
		C483.2,232.5,483.8,235.1,483.8,237.7"/>
</g>
<path class="st13" d="M177.1,249.6c1.3,0.8,2.3,2.3,2.5,3.9c0.5,0.3,1.2,0.4,1.8,0.4c2.4,0,4.3-1.9,4.3-4.3c0-2.4-1.9-4.3-4.3-4.3
	C179.1,245.4,177.2,247.3,177.1,249.6 M174.3,258.3c2.4,0,4.3-1.9,4.3-4.3c0-2.4-1.9-4.3-4.3-4.3c-2.4,0-4.3,1.9-4.3,4.3
	C170.1,256.4,172,258.3,174.3,258.3 M176.1,258.6h-3.6c-3,0-5.5,2.5-5.5,5.5v4.4l0,0.1l0.3,0.1c2.9,0.9,5.4,1.2,7.4,1.2
	c4,0,6.4-1.1,6.5-1.2l0.3-0.1h0v-4.4C181.6,261.1,179.2,258.6,176.1,258.6 M183.2,254.2h-3.6c0,1.4-0.7,2.7-1.6,3.7
	c2.7,0.8,4.6,3.3,4.6,6.2v1.4c3.6-0.1,5.6-1.1,5.7-1.2l0.3-0.1h0v-4.4C188.7,256.7,186.2,254.2,183.2,254.2 M166.8,253.9
	c0.8,0,1.6-0.2,2.3-0.7c0.2-1.4,0.9-2.6,2-3.4c0-0.1,0-0.2,0-0.2c0-2.4-1.9-4.3-4.3-4.3c-2.4,0-4.3,1.9-4.3,4.3
	C162.6,252,164.5,253.9,166.8,253.9 M170.7,257.9c-1-0.9-1.6-2.2-1.6-3.6c-0.1,0-0.3,0-0.4,0H165c-3,0-5.5,2.5-5.5,5.5v4.4l0,0.1
	l0.3,0.1c2.3,0.7,4.4,1.1,6.2,1.2v-1.3C166,261.2,168,258.7,170.7,257.9"/>
<path class="st13" d="M727.6,119.3c1.3,0.8,2.3,2.3,2.5,3.9c0.5,0.3,1.2,0.4,1.8,0.4c2.4,0,4.3-1.9,4.3-4.3c0-2.4-1.9-4.3-4.3-4.3
	C729.5,115,727.6,116.9,727.6,119.3 M724.8,128c2.4,0,4.3-1.9,4.3-4.3s-1.9-4.3-4.3-4.3c-2.4,0-4.3,1.9-4.3,4.3
	C720.5,126.1,722.4,128,724.8,128 M726.6,128.3H723c-3,0-5.5,2.5-5.5,5.5v4.4l0,0.1l0.3,0.1c2.9,0.9,5.4,1.2,7.4,1.2
	c4,0,6.4-1.1,6.5-1.2l0.3-0.1h0v-4.4C732.1,130.7,729.6,128.3,726.6,128.3 M733.7,123.9h-3.6c0,1.4-0.7,2.7-1.6,3.7
	c2.7,0.8,4.6,3.3,4.6,6.2v1.4c3.6-0.1,5.6-1.1,5.7-1.2l0.3-0.1h0v-4.4C739.1,126.3,736.7,123.9,733.7,123.9 M717.3,123.6
	c0.8,0,1.6-0.2,2.3-0.7c0.2-1.4,0.9-2.6,2-3.4c0-0.1,0-0.2,0-0.2c0-2.4-1.9-4.3-4.3-4.3c-2.4,0-4.3,1.9-4.3,4.3
	C713,121.7,714.9,123.6,717.3,123.6 M721.1,127.5c-1-0.9-1.6-2.2-1.6-3.6c-0.1,0-0.3,0-0.4,0h-3.6c-3,0-5.5,2.5-5.5,5.5v4.4l0,0.1
	l0.3,0.1c2.3,0.7,4.4,1.1,6.2,1.2v-1.3C716.5,130.8,718.4,128.3,721.1,127.5"/>
<path class="st13" d="M349.4,57.2h-13.8c-1.3,0-2.4,1.1-2.4,2.4v28.1c0,1.3,1.1,2.4,2.4,2.4h13.8c1.3,0,2.4-1.1,2.4-2.4V59.6
	C351.8,58.3,350.8,57.2,349.4,57.2 M347.9,58.7c0.3,0,0.6,0.3,0.6,0.6c0,0.3-0.3,0.6-0.6,0.6c-0.3,0-0.6-0.3-0.6-0.6
	C347.2,59,347.5,58.7,347.9,58.7 M339.3,58.9h6.4v0.7h-6.4V58.9z M342.5,88.6c-0.9,0-1.6-0.7-1.6-1.6c0-0.9,0.7-1.6,1.6-1.6
	c0.9,0,1.6,0.7,1.6,1.6C344.1,87.9,343.4,88.6,342.5,88.6 M350,83.8h-15V61.2h15V83.8z"/>
<path class="st27" d="M530.5,96V69.5c0-5.5-4.5-10-10-10H450"/>
<path class="st27" d="M449,194.5h71.5c5.5,0,10-4.5,10-10V163"/>
<path class="st27" d="M594,297.5h54.5c5.5,0,10-4.5,10-10V222"/>
<path class="st27" d="M405.5,242v45.5c0,5.5,4.5,10,10,10H530"/>
<path class="st27" d="M304,300.5h17c5.5,0,9.5-5,9.5-10.5v-77.5c0-5.5,4.5-10,10-10H357"/>
<path class="st27" d="M241.5,143v33.5c0,5.5,4.5,10,10,10H357"/>
<g>
	<g>
		<path class="st28" d="M119.5,179v-58c0-5.5,4.5-9.5,10-9.5H212"/>
		<g>
			<polygon class="st13" points="123,178 119.5,184 116,178 			"/>
		</g>
	</g>
</g>
<path class="st28" d="M342.5,92v10.5c0,5.5-4,10-9.5,10h-62"/>
<path class="st28" d="M637.5,111v10.5c0,5.5-4,10-9.5,10h-62"/>
<g>
	<g>
		<path class="st28" d="M724.5,150v33.5c0,5.5-4,10-9.5,10h-26"/>
		<g>
			<polygon class="st13" points="721,151 724.5,145 728,151 			"/>
		</g>
	</g>
</g>
<g>
	<g>
		<path class="st28" d="M297,38.5h36c5.5,0,9.5,4.5,9.5,10V55"/>
		<g>
			<circle class="st13" cx="297.3" cy="38.5" r="2.3"/>
		</g>
	</g>
</g>
<g>
	<g>
		<path class="st28" d="M99,69.5h70c5.5,0,9.5,4.5,9.5,10V111"/>
		<g>
			<circle class="st13" cx="98.9" cy="69.5" r="2.3"/>
		</g>
	</g>
</g>
<g>
	<g>
		<path class="st28" d="M490,237.5h66c5.5,0,9.5,4.5,9.5,10V267"/>
		<g>
			<circle class="st13" cx="489.9" cy="237.5" r="2.3"/>
		</g>
	</g>
</g>
<path class="st28" d="M173.5,274v15.5c0,5.5,5.5,11,11,11H240"/>
<path class="st26" d="M404.9,155.2c-22.2,0-40.2,18-40.2,40.2c0,22.2,18,40.2,40.2,40.2c22.2,0,40.2-18,40.2-40.2
	C445,173.2,427.1,155.2,404.9,155.2z M376,203.7v-5.1c0,0,0,0,0,0c1.2-0.5,4.5-1.7,6.5-2.3c0.2,0,0.2-0.1,0.2-0.8
	c0-0.8-0.1-1.3-0.3-1.7c-0.3-0.5-0.5-1.4-0.7-2.2c-0.3-0.3-0.7-1-1-2.3c-0.2-1.2-0.1-1.6,0-2c0,0,0-0.1,0-0.1c0.1-0.3,0-1.7-0.2-2.8
	c-0.1-0.7,0-2.3,1.1-3.6c0.6-0.8,1.9-1.8,4.1-2h1.2c2.3,0.1,3.5,1.2,4.2,2c1,1.3,1.2,2.9,1.1,3.6c-0.2,1.1-0.3,2.5-0.2,2.8
	c0,0,0,0.1,0,0.1c0.2,0.4,0.3,0.8,0,2c-0.3,1.3-0.7,2-1,2.3c-0.1,0.8-0.4,1.7-0.7,2.2c-0.2,0.5-0.5,1.1-0.5,1.7c0,0.7,0,0.7,0.2,0.8
	c2,0.6,5.2,1.7,6.5,2.3c0,0,0,0,0,0v5.2H376z M420.6,212.9h-29.2v-7.2c0,0,0,0,0,0c1.7-0.7,6.3-2.4,9.1-3.2c0.2-0.1,0.3-0.1,0.3-1.1
	c0-1.1-0.1-1.8-0.4-2.4c-0.4-0.8-0.8-2-0.9-3.2c-0.4-0.5-1-1.5-1.4-3.3c-0.3-1.6-0.2-2.2,0-2.8c0-0.1,0-0.1,0.1-0.2
	c0.1-0.4,0-2.3-0.3-3.9c-0.2-1,0-3.3,1.5-5.1c0.9-1.2,2.7-2.6,5.8-2.8h1.7c3.2,0.2,4.9,1.6,5.8,2.8c1.4,1.8,1.7,4.1,1.5,5.1
	c-0.3,1.5-0.4,3.5-0.3,3.9c0,0.1,0,0.1,0.1,0.2c0.2,0.6,0.4,1.1,0,2.8c-0.4,1.8-0.9,2.8-1.4,3.3c-0.1,1.1-0.6,2.4-0.9,3.2
	c-0.3,0.7-0.7,1.5-0.7,2.3c0,1,0,1,0.3,1.1c2.8,0.8,7.3,2.4,9.1,3.2l0,0V212.9z M415.5,203.7v-5.1c0,0,0,0,0,0
	c1.2-0.5,4.5-1.7,6.5-2.3c0.2,0,0.2-0.1,0.2-0.8c0-0.8-0.1-1.3-0.3-1.7c-0.3-0.5-0.6-1.4-0.7-2.2c-0.3-0.3-0.7-1-1-2.3
	c-0.2-1.2-0.1-1.6,0-2c0,0,0-0.1,0-0.1c0.1-0.3,0-1.7-0.2-2.8c-0.1-0.7,0-2.3,1.1-3.6c0.6-0.8,1.9-1.8,4.1-2h1.2
	c2.3,0.1,3.5,1.2,4.2,2c1,1.3,1.2,2.9,1.1,3.6c-0.2,1.1-0.3,2.5-0.2,2.8c0,0,0,0.1,0,0.1c0.2,0.4,0.3,0.8,0,2c-0.3,1.3-0.7,2-1,2.3
	c-0.1,0.8-0.4,1.7-0.7,2.2c-0.2,0.5-0.5,1.1-0.5,1.7c0,0.7,0,0.7,0.2,0.8c2,0.6,5.2,1.7,6.5,2.3c0,0,0,0,0,0v5.2H415.5z"/>
<g>
	<circle class="st26" cx="533" cy="125.2" r="2.2"/>
	<circle class="st26" cx="545.1" cy="125.2" r="2.2"/>
	<path class="st26" d="M539,127.4c0,0,0.1,0,0.1,0c1.1-0.1,2-1,2-2.2c0-1.2-0.9-2.1-2-2.2c0,0-0.1,0-0.1,0c-1.2,0-2.2,1-2.2,2.2
		C536.9,126.4,537.8,127.4,539,127.4z"/>
	<circle class="st26" cx="526.9" cy="125.2" r="2.2"/>
	<path class="st26" d="M530.8,98.6c-17.1,0-31,13.9-31,31c0,17.1,13.9,31,31,31c17.1,0,31-13.9,31-31
		C561.7,112.4,547.9,98.6,530.8,98.6z M539.2,141.1h-19.7l-4.8,5.2v-5.2h-2.9v-18.4h8.6v11.9v1h1h17.9V141.1z M549.8,134.5h-3.1v5.5
		l-4.9-5.5h-2.6h-17.8v-11.9v-7.2h28.4V134.5z"/>
</g>
</svg>
